<svg width="67" height="67" viewBox="0 0 67 67" fill="none" xmlns="http://www.w3.org/2000/svg">
<rect y="14.1468" width="54.6589" height="54.6589" rx="27.3295" transform="rotate(-15 0 14.1468)" fill="#FFF3F3"/>
<path d="M48.7859 29.249C49.5942 32.2656 49.4898 35.4542 48.486 38.4114C47.4821 41.3687 45.6238 43.962 43.1462 45.8631C40.6685 47.7643 37.6827 48.8881 34.5663 49.0924C31.45 49.2966 28.343 48.5722 25.6384 47.0107C22.9338 45.4491 20.7529 43.1207 19.3716 40.3197C17.9904 37.5187 17.4707 34.3711 17.8783 31.2747C18.286 28.1784 19.6026 25.2725 21.6618 22.9245C23.7209 20.5765 26.4301 18.8918 29.4467 18.0835L33.5336 33.3358L48.7859 29.249Z" fill="#F15060"/>
<path d="M31.1643 15.1073C33.1672 14.5706 35.2563 14.4337 37.3122 14.7044C39.3681 14.975 41.3505 15.648 43.1463 16.6848C44.9421 17.7216 46.5161 19.102 47.7785 20.7471C49.0408 22.3922 49.9667 24.2698 50.5034 26.2728L35.2511 30.3596L31.1643 15.1073Z" fill="#FF7482"/>
</svg>
